<svg xmlns="http://www.w3.org/2000/svg" x="0px" y="0px" width="100" height="100" viewBox="0,0,256,256">
<g fill="#ffffff" fill-rule="nonzero" stroke="none" stroke-width="1" stroke-linecap="butt" stroke-linejoin="miter" stroke-miterlimit="10" stroke-dasharray="" stroke-dashoffset="0" font-family="none" font-weight="none" font-size="none" text-anchor="none" style="mix-blend-mode: normal"><g transform="scale(10.66667,10.66667)"><path d="M7,3c-2.197,0 -4,1.803 -4,4v10c0,2.197 1.803,4 4,4h10c2.197,0 4,-1.803 4,-4v-10c0,-2.197 -1.803,-4 -4,-4zM7,5h10c1.117,0 2,0.883 2,2v10c0,1.117 -0.883,2 -2,2h-10c-1.117,0 -2,-0.883 -2,-2v-10c0,-1.117 0.883,-2 2,-2zM8.66797,6c-0.369,0 -0.66797,0.448 -0.66797,1v10c0,0.552 0.29897,1 0.66797,1h0.66602c0.368,0 0.66602,-0.448 0.66602,-1v-2.40039l1.48438,-1.88086l3.52148,5.28125h1.50781l0.49219,-1l-4.07617,-6.11133l3.07031,-3.88867l-0.51172,-1h-1.48828l-4,4.82813v-3.82812c0,-0.552 -0.29897,-1 -0.66797,-1z"></path></g></g>
</svg>